# xmcd CD database file
#
# Track frame offsets:
#	150
#	14435
#	28093
#	42368
#	56271
#	69004
#	80628
#	95413
#	109657
#	122518
#	137214
#	153464
#	174118
#	189481
#	205175
#	219905
#	237289
#	258010
#
# Disc length: 3644 seconds
#
# Revision: 5
# Processed by: cddbd v1.5.2PL0 Copyright (c) Steve Scherf et al.
# Submitted via: CDex 1.51
#
DISCID=e50e3a12
DTITLE=Count Basie - Vol. 72, Jazz and Blues collection 
DYEAR=1938
DGENRE=Jazz
TTITLE0=Topsy
TTITLE1=Honeysuckle rose
TTITLE2=Jumpin' at the woodside
TTITLE3=One o'clock jump
TTITLE4=Swingin' at the Daisy chain
TTITLE5=Roseland shuffle
TTITLE6=Blue and sentimental
TTITLE7=Texas shuffle
TTITLE8=Pannasie stomp
TTITLE9=You can depend on me
TTITLE10=Vine street rumble
TTITLE11=Night in Tunisia
TTITLE12=Everyday I have the blues
TTITLE13=I got rhythm
TTITLE14=Wee baby blues
TTITLE15=Stormy monday blues
TTITLE16=Basie's
TTITLE17=The magic flea
EXTD=YEAR: 1938
EXTT0=
EXTT1=
EXTT2=
EXTT3=
EXTT4=
EXTT5=
EXTT6=
EXTT7=
EXTT8=
EXTT9=
EXTT10=
EXTT11=
EXTT12=
EXTT13=
EXTT14=
EXTT15=
EXTT16=
EXTT17=
PLAYORDER=
